<svg id="visual" viewBox="0 0 960 540" width="960" height="540" xmlns="http://www.w3.org/2000/svg" xmlns:xlink="http://www.w3.org/1999/xlink" version="1.1"><path d="M0 86L22.8 83.5C45.7 81 91.3 76 137 85C182.7 94 228.3 117 274 120.3C319.7 123.7 365.3 107.3 411.2 117.2C457 127 503 163 548.8 170.7C594.7 178.3 640.3 157.7 686 140.5C731.7 123.3 777.3 109.7 823 111C868.7 112.3 914.3 128.7 937.2 136.8L960 145L960 0L937.2 0C914.3 0 868.7 0 823 0C777.3 0 731.7 0 686 0C640.3 0 594.7 0 548.8 0C503 0 457 0 411.2 0C365.3 0 319.7 0 274 0C228.3 0 182.7 0 137 0C91.3 0 45.7 0 22.8 0L0 0Z" fill="rgb(17 94 89)" stroke-linecap="round" stroke-linejoin="miter"></path></svg>